<?xml version="1.0" encoding="UTF-8"?>
<svg id="Layer_1" data-name="Layer 1" xmlns="http://www.w3.org/2000/svg" viewBox="0 0 113.97 97.58">
  <defs>
    <style>
      .cls-1 {
        fill: #fff;
      }

      .cls-2 {
        fill: #13bf00;
      }
    </style>
  </defs>
  <path class="cls-1" d="M47.12,65.17c-.06-.5-.03-1.01-.04-1.51.06,0,.13-.03.21-.08l9.63-5.53c.17-.1.28-.14.46-.03l9.88,5.68c0,.53.04,1.01-.04,1.54v10.12s-10.04,5.85-10.04,5.85l-9.92-5.78c-.1-.08-.13-.15-.14-.29v-9.97Z"/>
  <path class="cls-2" d="M50.11,66.48c-.04-.35-.02-.71-.02-1.06.04,0,.09-.02.15-.05l6.77-3.89c.12-.07.19-.1.32-.02l6.95,3.99c0,.37.03.71-.03,1.09v7.11s-7.06,4.11-7.06,4.11l-6.97-4.06c-.07-.06-.09-.11-.1-.2v-7.01Z"/>
  <g>
    <rect class="cls-1" x="71.46" y="38" width="71.87" height="13.15" transform="translate(62.82 151.97) rotate(-90)"/>
    <rect class="cls-1" x="83.28" y="4.25" width="13.15" height="21.91" transform="translate(74.64 105.06) rotate(-90)"/>
    <rect class="cls-1" x="39.67" y="0" width="35.06" height="35.06" transform="translate(39.67 74.73) rotate(-90)"/>
    <rect class="cls-1" x="-29.36" y="38" width="71.87" height="13.15" transform="translate(-38 51.15) rotate(-90)"/>
    <rect class="cls-1" x="17.54" y="4.25" width="13.15" height="21.91" transform="translate(8.9 39.33) rotate(-90)"/>
    <polygon class="cls-2" points="66.53 37.89 57.16 47.26 47.78 37.89 66.53 37.89"/>
    <polygon class="cls-2" points="35.16 97.58 21.91 97.58 21.91 84.43 21.96 84.39 35.16 97.58"/>
    <polygon class="cls-2" points="92.05 84.39 92.05 97.58 78.86 97.58 92.05 84.39"/>
    <rect class="cls-2" x="4.38" y="80" width="13.15" height="21.91" transform="translate(-80 101.92) rotate(-90)"/>
    <rect class="cls-2" x="96.43" y="80" width="13.15" height="21.91" transform="translate(12.05 193.97) rotate(-90)"/>
    <path d="M54.03,68.2c-.02-.16,0-.31-.01-.47.02,0,.04,0,.07-.02l3.01-1.73c.05-.03.09-.04.14-.01l3.09,1.77c0,.17.01.32-.01.48v3.16s-3.14,1.83-3.14,1.83l-3.1-1.8s-.04-.05-.04-.09v-3.12Z"/>
    <g>
      <polygon class="cls-1" points="54.15 89.3 33.05 69.55 54.08 49.86 37.51 49.86 37.48 49.83 17.76 69.55 37.48 89.27 37.48 89.3 54.15 89.3"/>
      <polygon class="cls-1" points="76.96 49.89 76.93 49.93 76.93 49.86 60.17 49.86 81.26 69.61 60.23 89.3 76.93 89.3 76.93 89.3 76.96 89.33 96.69 69.61 76.96 49.89"/>
    </g>
  </g>
</svg>