<?xml version="1.0" encoding="UTF-8"?>
<svg id="Layer_1" data-name="Layer 1" xmlns="http://www.w3.org/2000/svg" viewBox="0 0 802.46 172.25">
  <defs>
    <style>
      .cls-1, .cls-2 {
        fill: #13bf00;
      }

      .cls-1, .cls-3 {
        font-family: SegoeUI-Semibold, 'Segoe UI';
        font-size: 134.9px;
        font-weight: 600;
        letter-spacing: -.05em;
      }

      .cls-4, .cls-3 {
        fill: #fff;
      }
    </style>
  </defs>
  <g>
    <path class="cls-4" d="M47.12,80.94c-.06-.5-.03-1.01-.04-1.51.06,0,.13-.03.21-.08l9.63-5.53c.17-.1.28-.14.46-.03l9.88,5.68c0,.53.04,1.01-.04,1.54v10.12s-10.04,5.85-10.04,5.85l-9.92-5.78c-.1-.08-.13-.15-.14-.29v-9.97Z"/>
    <path class="cls-2" d="M50.11,82.25c-.04-.35-.02-.71-.02-1.06.04,0,.09-.02.15-.05l6.77-3.89c.12-.07.19-.1.32-.02l6.95,3.99c0,.37.03.71-.03,1.09v7.11s-7.06,4.11-7.06,4.11l-6.97-4.06c-.07-.06-.09-.11-.1-.2v-7.01Z"/>
    <g>
      <rect class="cls-4" x="71.46" y="53.77" width="71.87" height="13.15" transform="translate(47.05 167.74) rotate(-90)"/>
      <rect class="cls-4" x="83.28" y="20.03" width="13.15" height="21.91" transform="translate(58.87 120.83) rotate(-90)"/>
      <rect class="cls-4" x="39.67" y="15.77" width="35.06" height="35.06" transform="translate(23.9 90.51) rotate(-90)"/>
      <rect class="cls-4" x="-29.36" y="53.77" width="71.87" height="13.15" transform="translate(-53.77 66.92) rotate(-90)"/>
      <rect class="cls-4" x="17.54" y="20.03" width="13.15" height="21.91" transform="translate(-6.87 55.1) rotate(-90)"/>
      <polygon class="cls-2" points="66.53 53.66 57.16 63.04 47.78 53.66 66.53 53.66"/>
      <polygon class="cls-2" points="35.16 113.35 21.91 113.35 21.91 100.2 21.96 100.16 35.16 113.35"/>
      <polygon class="cls-2" points="92.05 100.16 92.05 113.35 78.86 113.35 92.05 100.16"/>
      <rect class="cls-2" x="4.38" y="95.77" width="13.15" height="21.91" transform="translate(-95.77 117.69) rotate(-90)"/>
      <rect class="cls-2" x="96.43" y="95.77" width="13.15" height="21.91" transform="translate(-3.72 209.74) rotate(-90)"/>
      <path d="M54.03,83.97c-.02-.16,0-.31-.01-.47.02,0,.04,0,.07-.02l3.01-1.73c.05-.03.09-.04.14-.01l3.09,1.77c0,.17.01.32-.01.48v3.16s-3.14,1.83-3.14,1.83l-3.1-1.8s-.04-.05-.04-.09v-3.12Z"/>
      <g>
        <polygon class="cls-4" points="54.15 105.08 33.05 85.32 54.08 65.63 37.51 65.63 37.48 65.6 17.76 85.32 37.48 105.05 37.48 105.08 54.15 105.08"/>
        <polygon class="cls-4" points="76.96 65.66 76.93 65.7 76.93 65.63 60.17 65.63 81.26 85.38 60.23 105.08 76.93 105.08 76.93 105.07 76.96 105.11 96.69 85.38 76.96 65.66"/>
      </g>
    </g>
  </g>
  <text class="cls-3" transform="translate(127.11 114.68)"><tspan x="0" y="0">Bambu</tspan></text>
  <text class="cls-1" transform="translate(527.2 114.68)"><tspan x="0" y="0">View</tspan></text>
</svg>